<svg height="128" viewBox="0 0 128 128" width="128" xmlns="http://www.w3.org/2000/svg"><g fill="#282d33"><path d="m68.543 82.694-1.463-1.462-6.814-20.617 20.663 6.795 1.464 1.461-2.827 2.829-.79-.788-12.223-4.018 4.027 12.18.79.79z"/><path d="m81.128 72.655 36.337 36.252-8.794 8.772-36.336-36.25zm0-5.561-14.368 14.335 41.911 41.813 14.368-14.335z"/><path d="m69.176 94.16h53.438v4h-53.438z" transform="matrix(.708 .7062 -.7062 .708 95.9104 -39.6431)"/><path d="m115.218 128c-.854 0-1.682-.313-2.318-.946l-4.484-4.475 2.824-2.832 4.068 4.06 8.298-8.277-4.062-4.052 2.826-2.832 4.482 4.474c.605.6.942 1.423.943 2.312.002.996-.427 1.995-1.176 2.74l-8.676 8.659c-.781.776-1.769 1.169-2.725 1.169z"/><path d="m60.695 106.535c-12.017 0-23.966-4.61-32.925-13.534-8.76-8.752-13.581-20.388-13.576-32.764.004-12.366 4.83-23.986 13.587-32.723 18.112-18.036 47.56-18.037 65.645 0 16.105 16.07 18.214 41.133 5.014 59.591l-3.254-2.325c12.057-16.86 10.129-39.753-4.585-54.435-16.528-16.483-43.441-16.483-59.996.003-7.999 7.979-12.407 18.595-12.412 29.891-.004 11.307 4.4 21.938 12.402 29.931 14.208 14.151 36.647 16.438 53.354 5.431l2.2 3.34c-7.745 5.101-16.618 7.594-25.454 7.594z"/><path d="m60.603 91.718c-8.155.001-16.194-3.173-22.277-9.23-5.948-5.943-9.221-13.841-9.218-22.242.003-8.393 3.277-16.28 9.221-22.21 12.293-12.24 32.281-12.24 44.557-.001 9.99 9.969 12.104 25.48 5.142 37.723l-3.476-1.977c6.073-10.681 4.227-24.215-4.491-32.914-10.72-10.688-28.173-10.688-38.909.001-5.185 5.174-8.042 12.057-8.045 19.38-.002 7.331 2.854 14.224 8.042 19.408 8.499 8.465 21.376 10.479 32.041 5.013l1.824 3.558c-4.578 2.347-9.516 3.491-14.411 3.491z"/><path d="m60.616 75.643c-4.116 0-7.989-1.6-10.904-4.504-2.91-2.906-4.51-6.77-4.509-10.879.001-4.106 1.603-7.966 4.511-10.868 2.914-2.901 6.783-4.498 10.897-4.498 4.115 0 7.984 1.598 10.894 4.498 2.912 2.905 4.515 6.768 4.515 10.878 0 4.108-1.603 7.97-4.512 10.873-2.91 2.901-6.779 4.5-10.892 4.5zm-.005-26.749c-3.049 0-5.917 1.183-8.074 3.331-2.149 2.145-3.334 4.999-3.335 8.037 0 3.039 1.184 5.897 3.335 8.046 2.158 2.15 5.028 3.335 8.079 3.335 3.047 0 5.913-1.183 8.068-3.332 2.151-2.147 3.336-5.003 3.336-8.041 0-3.04-1.185-5.897-3.339-8.046-2.155-2.148-5.021-3.33-8.07-3.33z"/><path d="m58.611 0h4v38.479h-4z"/><path d="m58.611 82.054h4v38.479h-4z"/><path d="m82.448 58.267h38.569v3.999h-38.569z"/><path d="m.204 58.267h38.569v3.999h-38.569z"/></g></svg>